<?xml version="1.0" encoding="UTF-8"?>
<svg viewBox="0 0 104.7625 104.7625" xmlns="http://www.w3.org/2000/svg">
 <g transform="matrix(1.25 0 0 -1.25 0 104.76)">
  <g transform="scale(.24)">
   <path d="m9.625 326.29c0 6.902 5.5938 12.5 12.5 12.5h304.16c6.906 0 12.5-5.598 12.5-12.5v-304.16c0-6.9062-5.594-12.5-12.5-12.5h-304.16c-6.9062 0-12.5 5.5938-12.5 12.5v304.16" fill="#8d6e27"/>
   <path d="m9.625 326.29c0 6.902 5.5938 12.5 12.5 12.5h304.16c6.906 0 12.5-5.598 12.5-12.5v-304.16c0-6.9062-5.594-12.5-12.5-12.5h-304.16c-6.9062 0-12.5 5.5938-12.5 12.5v304.16z" fill="none" stroke="#8d6e27" stroke-width="20.833"/>
   <path d="m9.625 326.29c0 6.902 5.5938 12.5 12.5 12.5h304.16c6.906 0 12.5-5.598 12.5-12.5v-304.16c0-6.9062-5.594-12.5-12.5-12.5h-304.16c-6.9062 0-12.5 5.5938-12.5 12.5v304.16" fill="#8d6e27"/>
   <path d="m9.625 326.29c0 6.902 5.5938 12.5 12.5 12.5h304.16c6.906 0 12.5-5.598 12.5-12.5v-304.16c0-6.9062-5.594-12.5-12.5-12.5h-304.16c-6.9062 0-12.5 5.5938-12.5 12.5v304.16z" fill="none" stroke="#fff" stroke-width="8.3333"/>
   <path d="m228.67 54.074v79.801c5.398 11.102 11.098 21.898 17.094 32.699-3.895 7.5-8.094 15-11.996 22.801l-5.098-8.102v50.704c0.594 0.898 1.492 2.097 2.398 2.996l10.801 3.601 16.797-5.101 9.902-12c-2.398 6.3-4.8 12.601-7.507 18.902 5.703 4.5 11.101 6.297 16.804 5.398 6.903-15.3 13.805-30.601 20.696-45.898-3.301-9-10.493-11.402-16.793-6.301-0.301 0.297-1.805 4.5-2.102 5.102 3.902-18.004 4.797-35.703 0.902-44.403l27.895-96.3-13.797-8.9961-36.297 79.195-14.101-15.297-6.899-30 16.801-32.402-7.504-1.4961-12.898 20.094-5.098-14.996zm0 184.8c10.195 0 18.598 8.398 18.598 18.898 0 10.2-8.403 18.602-18.598 18.602v-37.5zm0 37.5v-37.5c-10.508 0-18.602 8.398-18.602 18.898 0 10.2 8.094 18.602 18.602 18.602zm0-44.398v-50.704l-3.602-5.699-32.101-12.301 27.293-47.703c2.707 6.305 5.406 12.305 8.41 18.305v-79.801l-1.809-5.7031-20.695 5.1055 11.699 48.296-33.297 58.801-2.402-0.902v14.703c10.496 6.898 20.699 13.199 31.496 20.102 2.406 12.898 6.906 25.496 15.008 37.5zm-46.504-176.7 6.602 5.6993-6.602 22.5v-28.199zm-85.203 244.8c10.801 0 19.801-9 19.801-19.801 0-11.101-9-19.8-19.801-19.8v39.601zm85.203-125.7v-14.703l-2.996-0.899-3.906 11.102c2.097 1.5 4.5 3 6.902 4.5zm0-90.902-26.398 85.199c3.3 4.801 5.093 10.801 5.398 17.699-0.898 8.106-3.898 17.102-6.598 25.504-2.703 5.398-0.304 0 1.793-0.602 9.004-3 14.106 0 16.805 6.899-8.398 18.601-15.605 36.902-24.301 55.199-6.902-0.297-12.304-2.699-15.898-6.898l11.699-32.098c-6.902 15.898-15.906 26.996-30.898 26.699-5.403 0-11.102-2.699-16.805-8.402v-57.899c2.0977 3.301 4.1991 6.301 6.0041 9.301 6.598-8.101 11.101-16.5 13.5-24.601l-19.504-41.399v-86.703l3.9021-0.8984 6.301 26.102 14.402-23.098 10.797 0.8984-22.203 39.598 4.5 22.203 17.703 21.297 42.301-88.496 7.5 6.2968v28.199zm-85.203 216.6v-39.601c-10.797 0-19.797 8.699-19.797 19.8 0 10.801 9 19.801 19.797 19.801zm0-47.402v-57.899s-0.2968-0.296-0.2968-0.601l-35.106-17.699 30.008-49.801 5.3945 11.402v-86.703l-18.297 4.8008 10.199 53.101-36.898 63-6.3007-2.097-5.6993 11.398 41.699 28.5c4.8007 13.797 9.5937 27.899 14.402 41.699l0.8945 0.899" fill="#fff"/>
  </g>
 </g>
</svg>
